<?xml version="1.0" encoding="iso-8859-1"?>
<!-- Generator: Adobe Illustrator 19.0.0, SVG Export Plug-In . SVG Version: 6.00 Build 0)  -->
<svg version="1.1" id="Layer_1" xmlns="http://www.w3.org/2000/svg" xmlns:xlink="http://www.w3.org/1999/xlink" x="0px" y="0px"
	 viewBox="0 0 512.001 512.001" style="enable-background:new 0 0 512.001 512.001;" xml:space="preserve">
<path style="fill:#9AD14B;" d="M493.116,251.032c3.429,0,6.902,0.26,10.399,0.792c-5.703,37.329-40.576,62.969-77.905,57.266
	C430.78,275.258,459.917,251.032,493.116,251.032z"/>
<g>
	<path style="fill:#90BC42;" d="M489.461,150.202c8.249,36.842-14.936,73.402-51.779,81.651c-1.12-5.035-1.663-10.059-1.663-15.004
		C436.019,185.551,457.643,157.331,489.461,150.202z"/>
	<path style="fill:#90BC42;" d="M482.061,357.972v0.011c-23.92,29.205-66.998,33.493-96.214,9.573
		c0.17-0.204,0.339-0.407,0.52-0.611c1.482-1.562,2.931-3.146,4.356-4.741C415.29,337.899,454.735,335.602,482.061,357.972z"/>
</g>
<g>
	<path style="fill:#9AD14B;" d="M436.279,69.321c21.884,30.766,14.698,73.447-16.068,95.342
		c-8.554-12.028-12.673-25.867-12.673-39.581C407.539,103.708,417.541,82.661,436.279,69.321z"/>
	<path style="fill:#9AD14B;" d="M429.06,276.774c0,6.348-0.894,12.809-2.761,19.213c-36.243-10.602-57.029-48.565-46.438-84.808
		C409.7,219.904,429.06,247.185,429.06,276.774z"/>
</g>
<path style="fill:#90BC42;" d="M426.141,184.306c-35.598,12.594-74.658-6.042-87.263-41.629c7.547-2.67,15.253-3.938,22.823-3.938
	C389.853,138.74,416.206,156.256,426.141,184.306z"/>
<g>
	<path style="fill:#9AD14B;" d="M420.947,433.807c-32.871,18.568-74.567,6.97-93.147-25.889c3.191-1.38,6.348-2.863,9.471-4.447
		c7.853-2.987,16.011-4.424,24.09-4.424C385.214,399.047,408.376,411.55,420.947,433.807z"/>
	<path style="fill:#9AD14B;" d="M358.623,295.41c11.587,13.024,17.278,29.239,17.278,45.397c0,18.851-7.74,37.612-22.936,51.122
		C327.879,363.709,330.414,320.496,358.623,295.41z"/>
	<path style="fill:#9AD14B;" d="M174.716,403.46c3.123,1.584,6.291,3.066,9.482,4.458c-18.568,32.859-60.265,44.458-93.147,25.889
		c12.571-22.257,35.734-34.76,59.586-34.76C158.717,399.047,166.864,400.484,174.716,403.46z"/>
	<path style="fill:#9AD14B;" d="M153.376,295.41c28.22,25.086,30.755,68.299,5.658,96.519
		c-15.185-13.51-22.936-32.271-22.936-51.122C136.097,324.649,141.8,308.434,153.376,295.41z"/>
</g>
<path style="fill:#90BC42;" d="M150.298,138.74c7.581,0,15.276,1.267,22.823,3.938c-12.594,35.586-51.665,54.223-87.263,41.629
	C95.793,156.256,122.157,138.74,150.298,138.74z"/>
<path style="fill:#9AD14B;" d="M132.137,211.18c10.602,36.243-10.184,74.205-46.426,84.808c-1.878-6.404-2.772-12.865-2.772-19.225
	C82.938,247.174,102.299,219.904,132.137,211.18z"/>
<path style="fill:#90BC42;" d="M125.563,366.855c0.204,0.226,0.396,0.464,0.588,0.702c-29.216,23.92-72.293,19.632-96.214-9.573
	v-0.011c27.372-22.404,66.896-20.062,91.45,4.345C122.745,363.845,124.137,365.361,125.563,366.855z"/>
<g>
	<path style="fill:#9AD14B;" d="M104.46,125.082c0,13.714-4.119,27.553-12.673,39.581c-30.755-21.895-37.951-64.576-16.056-95.342
		C94.469,82.661,104.46,103.708,104.46,125.082z"/>
	<path style="fill:#9AD14B;" d="M86.39,309.091c-37.329,5.703-72.203-19.937-77.905-57.266c3.496-0.532,6.97-0.792,10.399-0.792
		C52.082,251.032,81.218,275.258,86.39,309.091z"/>
</g>
<path style="fill:#90BC42;" d="M75.98,216.849c0,4.945-0.532,9.969-1.663,15.004c-36.842-8.249-60.027-44.808-51.779-81.651
	C54.356,157.319,75.98,185.551,75.98,216.849z"/>
<path style="fill:#333333;" d="M436.095,318.377c16.245,0,32.018-5.143,45.354-14.945c16.541-12.158,27.357-30.031,30.455-50.323
	c0.339-2.225-0.218-4.494-1.551-6.307c-1.333-1.814-3.331-3.023-5.557-3.363c-22.812-3.484-44.839,3.511-61.218,17.358
	c0.695-7.293,0.961-14.618,0.81-21.936c38.515-11.28,62.245-50.808,53.354-90.516c-0.492-2.196-1.835-4.107-3.736-5.313
	c-1.901-1.205-4.202-1.603-6.399-1.115c-23.92,5.355-42.721,21.401-52.546,41.972c-1.707-5.221-3.649-10.381-5.824-15.465
	c14.425-11.772,23.998-28.16,27.12-46.691c3.412-20.243-1.265-40.602-13.169-57.328c-2.716-3.819-8.015-4.712-11.835-1.994
	c-19.604,13.951-30.677,35.482-32.098,57.808c-3.151-3.677-6.466-7.263-9.947-10.744c-3.315-3.314-8.688-3.314-12.002,0
	c-3.314,3.314-3.314,8.688,0,12.001c4.563,4.563,8.803,9.327,12.744,14.254c-16.698-6.644-35.774-7.51-54.007-1.055
	c-2.122,0.751-3.859,2.314-4.828,4.345c-0.969,2.031-1.091,4.364-0.341,6.486c6.851,19.351,20.828,34.876,39.357,43.715
	c10.496,5.007,21.739,7.528,33.034,7.528c5.813,0,11.637-0.685,17.38-2.025c4.166,14.368,6.429,29.175,6.776,44.022
	c-9.916-17.408-25.899-30.073-45.178-35.71c-4.498-1.315-9.212,1.266-10.527,5.764c-5.762,19.703-3.505,40.47,6.352,58.476
	c8.689,15.872,22.375,27.916,38.99,34.496c-7.526,20.638-19.135,40.107-34.831,57.145c1.059-4.417,1.756-8.954,2.027-13.584
	c1.202-20.493-5.65-40.227-19.291-55.567c-3.114-3.502-8.479-3.817-11.981-0.703c-29.689,26.401-34.052,70.832-11.276,102.376
	c-25.777,14.916-55.13,22.873-85.71,22.873s-59.931-7.957-85.71-22.873c10.35-14.301,15.423-31.583,14.376-49.443
	c-1.202-20.493-10.312-39.292-25.652-52.933c-3.503-3.115-8.867-2.799-11.981,0.703c-17.372,19.537-22.925,45.543-17.206,69.214
	c-15.725-17.054-27.355-36.545-34.888-57.209c16.616-6.58,30.301-18.624,38.991-34.497c9.858-18.006,12.114-38.774,6.354-58.477
	c-0.633-2.16-2.096-3.982-4.07-5.062c-1.975-1.081-4.296-1.333-6.458-0.702c-19.902,5.819-35.655,19.041-45.178,35.783
	c0.339-14.87,2.603-29.704,6.776-44.094c5.744,1.341,11.568,2.025,17.38,2.025c11.294,0,22.539-2.522,33.034-7.528
	c18.529-8.839,32.505-24.364,39.356-43.715c1.564-4.417-0.749-9.267-5.168-10.832c-18.237-6.458-37.317-5.582-54.019,1.069
	c3.943-4.932,8.188-9.701,12.755-14.269c3.314-3.314,3.314-8.688,0-12.001c-3.314-3.314-8.688-3.314-12.001,0
	c-3.481,3.481-6.795,7.065-9.946,10.744c-1.421-22.325-12.494-43.857-32.098-57.807c-3.82-2.718-9.118-1.825-11.835,1.994
	c-11.903,16.726-16.578,37.085-13.169,57.328c3.122,18.531,12.695,34.919,27.12,46.691c-2.175,5.084-4.116,10.244-5.824,15.465
	c-9.825-20.571-28.625-36.616-52.545-41.972c-2.194-0.491-4.498-0.091-6.399,1.115s-3.245,3.116-3.736,5.313
	c-8.89,39.709,14.84,79.236,53.354,90.516c-0.15,7.319,0.115,14.643,0.81,21.936c-16.377-13.843-38.404-20.838-61.217-17.356
	c-2.225,0.339-4.223,1.549-5.557,3.363c-1.333,1.814-1.891,4.083-1.551,6.307c5.799,37.979,38.626,65.258,75.925,65.258
	c2.356,0,4.733-0.123,7.121-0.345c2.728,6.287,5.827,12.448,9.272,18.464c-22.901-5.867-48.202-1.165-67.853,14.926
	c-3.627,2.97-4.158,8.317-1.189,11.943c15.175,18.53,37.263,28.129,59.528,28.129c14.728,0,29.529-4.216,42.454-12.816
	c4.672,4.496,9.533,8.727,14.571,12.679c-22.869,3.229-44.05,16.665-56.261,38.282c-1.107,1.96-1.391,4.279-0.788,6.447
	c0.603,2.169,2.042,4.008,4.002,5.116c11.692,6.605,24.608,9.972,37.681,9.972c6.91,0,13.867-0.941,20.706-2.844
	c17.315-4.815,32.08-15.28,42.264-29.804c21.536,8.382,44.664,12.769,68.469,12.769s46.932-4.387,68.469-12.769
	c10.184,14.524,24.949,24.99,42.265,29.804c6.841,1.902,13.793,2.844,20.706,2.844c13.071,0,25.99-3.369,37.681-9.972
	c4.08-2.306,5.521-7.483,3.216-11.563c-12.211-21.617-33.392-35.052-56.261-38.282c5.038-3.951,9.899-8.183,14.57-12.679
	c12.924,8.6,27.725,12.816,42.455,12.816c22.263,0,44.356-9.6,59.528-28.129c1.426-1.741,2.101-3.978,1.878-6.218
	s-1.326-4.299-3.068-5.726c-19.652-16.093-44.953-20.793-67.854-14.925c3.444-6.016,6.544-12.177,9.272-18.463
	C431.275,318.25,433.691,318.377,436.095,318.377z M457.73,271.163c10.389-7.636,22.668-11.642,35.323-11.646
	c-3.779,12.076-11.269,22.602-21.656,30.238c-10.389,7.635-22.668,11.642-35.323,11.646
	C439.853,289.325,447.342,278.797,457.73,271.163z M453.829,184.844c6.902-10.884,16.887-19.079,28.672-23.678
	c1.738,25.928-13.67,50.226-37.864,59.711C443.772,208.254,446.926,195.729,453.829,184.844z M434.122,82.134
	c5.689,11.298,7.641,24.068,5.499,36.776c-2.142,12.709-8.168,24.134-17.246,32.944C410.718,128.629,415.499,100.258,434.122,82.134
	z M377.541,173.901c-11.632-5.549-20.963-14.482-26.942-25.63c25.535-4.826,51.502,7.559,63.813,30.443
	C401.989,181.081,389.174,179.451,377.541,173.901z M161.398,148.262c-12.312,22.884-38.283,35.272-63.813,30.443
	c5.978-11.149,15.308-20.081,26.942-25.63C136.16,147.525,148.972,145.893,161.398,148.262z M72.381,118.911
	c-2.142-12.712-0.19-25.483,5.503-36.782c9.08,8.811,15.11,20.237,17.251,32.95c2.142,12.712,0.19,25.483-5.503,36.782
	C80.552,143.05,74.523,131.622,72.381,118.911z M67.357,220.872c-24.187-9.484-39.592-33.776-37.856-59.699
	C53.69,170.658,69.093,194.949,67.357,220.872z M40.606,289.755c-10.384-7.633-17.874-18.158-21.654-30.23
	c25.985,0.048,49.168,17.088,56.968,41.875C63.27,301.395,50.99,297.388,40.606,289.755z M154.142,308.374
	c8.072,9.74,12.828,21.75,13.582,34.616c0.755,12.867-2.565,25.348-9.444,35.966C141.727,358.924,140.042,330.203,154.142,308.374z
	 M98.802,248.043c6.189-11.305,15.63-20.122,27.093-25.469c3.398,25.763-10.419,50.999-33.955,62.017
	C90.27,272.051,92.614,259.348,98.802,248.043z M42.875,359.266c22.379-13.197,51.002-10.347,70.342,7.003
	C90.834,379.465,62.213,376.615,42.875,359.266z M140.722,431.968c-12.418,3.451-25.319,2.841-37.149-1.642
	c15.938-20.22,43.297-27.961,67.447-19.178c0.205,0.104,0.41,0.206,0.614,0.309C163.821,421.366,153.109,428.524,140.722,431.968z
	 M392.959,259.125c-6.189-11.305-8.533-24.008-6.86-36.547c23.535,11.017,37.353,36.254,33.954,62.017
	C408.587,279.247,399.148,270.429,392.959,259.125z M344.277,342.99c0.755-12.869,5.513-24.881,13.588-34.622
	c6.882,10.618,10.203,23.103,9.449,35.972c-0.755,12.869-5.513,24.881-13.588,34.622
	C346.845,368.344,343.524,355.859,344.277,342.99z M408.425,430.321c-24.279,9.159-51.956,1.48-68.049-18.867
	c0.203-0.102,0.405-0.204,0.608-0.305C365.13,402.367,392.486,410.105,408.425,430.321z M469.129,359.266
	c-19.34,17.345-47.962,20.198-70.343,7.003C418.125,348.924,446.747,346.072,469.129,359.266z"/>
<g>
</g>
<g>
</g>
<g>
</g>
<g>
</g>
<g>
</g>
<g>
</g>
<g>
</g>
<g>
</g>
<g>
</g>
<g>
</g>
<g>
</g>
<g>
</g>
<g>
</g>
<g>
</g>
<g>
</g>
</svg>
